# This file uses centimeters as units for non-parametric coordinates.

mtllib 2-Platform.mtl
g default
v -0.500000 -0.500000 0.500000
v 0.500000 -0.500000 0.500000
v -0.500000 0.500000 0.500000
v 0.500000 0.500000 0.500000
v -0.500000 0.500000 -0.500000
v 0.500000 0.500000 -0.500000
v -0.500000 -0.500000 -0.500000
v 0.500000 -0.500000 -0.500000
vt 0.375000 0.000000
vt 0.625000 0.000000
vt 0.375000 0.250000
vt 0.625000 0.250000
vt 0.375000 0.500000
vt 0.625000 0.500000
vt 0.375000 0.750000
vt 0.625000 0.750000
vt 0.000000 0.333333
vt 0.500000 0.333333
vt 0.875000 0.000000
vt 0.875000 0.250000
vt 0.666667 0.000000
vt 0.333333 0.000000
vt 0.500000 0.666667
vt 0.000000 0.666667
vt 0.000000 0.666667
vt 0.500000 0.666667
vt 0.500000 0.333333
vt 0.000000 0.333333
vt 0.333333 1.000000
vt 0.666667 1.000000
vn 0.000000 0.000000 1.000000
vn 0.000000 0.000000 1.000000
vn 0.000000 0.000000 1.000000
vn 0.000000 0.000000 1.000000
vn 0.000000 1.000000 0.000000
vn 0.000000 1.000000 0.000000
vn 0.000000 1.000000 0.000000
vn 0.000000 1.000000 0.000000
vn 0.000000 0.000000 -1.000000
vn 0.000000 0.000000 -1.000000
vn 0.000000 0.000000 -1.000000
vn 0.000000 0.000000 -1.000000
vn 0.000000 -1.000000 0.000000
vn 0.000000 -1.000000 0.000000
vn 0.000000 -1.000000 0.000000
vn 0.000000 -1.000000 0.000000
vn 1.000000 0.000000 0.000000
vn 1.000000 0.000000 0.000000
vn 1.000000 0.000000 0.000000
vn 1.000000 0.000000 0.000000
vn -1.000000 0.000000 0.000000
vn -1.000000 0.000000 0.000000
vn -1.000000 0.000000 0.000000
vn -1.000000 0.000000 0.000000
s off
g pCube1
usemtl initialShadingGroup
f 1/1/1 2/2/2 4/4/3 3/3/4
f 3/9/5 4/10/6 6/15/7 5/16/8
f 5/5/9 6/6/10 8/8/11 7/7/12
f 7/17/13 8/18/14 2/19/15 1/20/16
f 2/2/17 8/11/18 6/12/19 4/4/20
f 7/13/21 1/14/22 3/21/23 5/22/24
g default
v 0.500000 -0.500000 0.500000
v 1.500000 -0.500000 0.500000
v 0.500000 0.500000 0.500000
v 1.500000 0.500000 0.500000
v 0.500000 0.500000 -0.500000
v 1.500000 0.500000 -0.500000
v 0.500000 -0.500000 -0.500000
v 1.500000 -0.500000 -0.500000
vt 0.375000 0.000000
vt 0.625000 0.000000
vt 0.375000 0.250000
vt 0.625000 0.250000
vt 0.375000 0.500000
vt 0.625000 0.500000
vt 0.375000 0.750000
vt 0.625000 0.750000
vt 0.500000 0.333333
vt 1.000000 0.333333
vt 0.333333 0.000000
vt 0.666667 0.000000
vt 0.125000 0.000000
vt 0.125000 0.250000
vt 1.000000 0.666667
vt 0.500000 0.666667
vt 0.500000 0.666667
vt 1.000000 0.666667
vt 1.000000 0.333333
vt 0.500000 0.333333
vt 0.666667 1.000000
vt 0.333333 1.000000
vn 0.000000 0.000000 1.000000
vn 0.000000 0.000000 1.000000
vn 0.000000 0.000000 1.000000
vn 0.000000 0.000000 1.000000
vn 0.000000 1.000000 0.000000
vn 0.000000 1.000000 0.000000
vn 0.000000 1.000000 0.000000
vn 0.000000 1.000000 0.000000
vn 0.000000 0.000000 -1.000000
vn 0.000000 0.000000 -1.000000
vn 0.000000 0.000000 -1.000000
vn 0.000000 0.000000 -1.000000
vn 0.000000 -1.000000 0.000000
vn 0.000000 -1.000000 0.000000
vn 0.000000 -1.000000 0.000000
vn 0.000000 -1.000000 0.000000
vn 1.000000 0.000000 0.000000
vn 1.000000 0.000000 0.000000
vn 1.000000 0.000000 0.000000
vn 1.000000 0.000000 0.000000
vn -1.000000 0.000000 0.000000
vn -1.000000 0.000000 0.000000
vn -1.000000 0.000000 0.000000
vn -1.000000 0.000000 0.000000
s off
g pCube1 pCube2
usemtl initialShadingGroup
f 9/23/25 10/24/26 12/26/27 11/25/28
f 11/31/29 12/32/30 14/37/31 13/38/32
f 13/27/33 14/28/34 16/30/35 15/29/36
f 15/39/37 16/40/38 10/41/39 9/42/40
f 10/33/41 16/34/42 14/43/43 12/44/44
f 15/35/45 9/23/46 11/25/47 13/36/48
g default
v 0.500000 -0.500000 1.500000
v 1.500000 -0.500000 1.500000
v 0.500000 0.500000 1.500000
v 1.500000 0.500000 1.500000
v 0.500000 0.500000 0.500000
v 1.500000 0.500000 0.500000
v 0.500000 -0.500000 0.500000
v 1.500000 -0.500000 0.500000
vt 0.375000 0.000000
vt 0.500000 0.000000
vt 0.375000 0.250000
vt 1.000000 0.000000
vt 0.375000 0.500000
vt 0.625000 0.500000
vt 0.375000 0.750000
vt 0.625000 0.750000
vt 0.500000 0.000000
vt 1.000000 0.000000
vt 0.000000 0.000000
vt 0.333333 0.000000
vt 0.125000 0.000000
vt 0.125000 0.250000
vt 1.000000 0.333333
vt 0.500000 0.333333
vt 0.500000 0.333333
vt 1.000000 0.333333
vt 1.000000 0.000000
vt 0.500000 0.000000
vt 0.333333 1.000000
vt 0.000000 1.000000
vt 1.000000 1.000000
vt 0.500000 1.000000
vn 0.000000 0.000000 1.000000
vn 0.000000 0.000000 1.000000
vn 0.000000 0.000000 1.000000
vn 0.000000 0.000000 1.000000
vn 0.000000 1.000000 0.000000
vn 0.000000 1.000000 0.000000
vn 0.000000 1.000000 0.000000
vn 0.000000 1.000000 0.000000
vn 0.000000 0.000000 -1.000000
vn 0.000000 0.000000 -1.000000
vn 0.000000 0.000000 -1.000000
vn 0.000000 0.000000 -1.000000
vn 0.000000 -1.000000 0.000000
vn 0.000000 -1.000000 0.000000
vn 0.000000 -1.000000 0.000000
vn 0.000000 -1.000000 0.000000
vn 1.000000 0.000000 0.000000
vn 1.000000 0.000000 0.000000
vn 1.000000 0.000000 0.000000
vn 1.000000 0.000000 0.000000
vn -1.000000 0.000000 0.000000
vn -1.000000 0.000000 0.000000
vn -1.000000 0.000000 0.000000
vn -1.000000 0.000000 0.000000
s off
g pCube1 pCube3
usemtl initialShadingGroup
f 17/46/49 18/48/50 20/67/51 19/68/52
f 19/53/53 20/54/54 22/59/55 21/60/56
f 21/49/57 22/50/58 24/52/59 23/51/60
f 23/61/61 24/62/62 18/63/63 17/64/64
f 18/55/65 24/56/66 22/65/67 20/66/68
f 23/57/69 17/45/70 19/47/71 21/58/72
g default
v -0.500000 -0.500000 1.500000
v 0.500000 -0.500000 1.500000
v -0.500000 0.500000 1.500000
v 0.500000 0.500000 1.500000
v -0.500000 0.500000 0.500000
v 0.500000 0.500000 0.500000
v -0.500000 -0.500000 0.500000
v 0.500000 -0.500000 0.500000
vt 0.000000 0.000000
vt 0.625000 0.000000
vt 0.500000 0.000000
vt 0.625000 0.250000
vt 0.375000 0.500000
vt 0.625000 0.500000
vt 0.375000 0.750000
vt 0.625000 0.750000
vt 0.000000 0.000000
vt 0.500000 0.000000
vt 0.875000 0.000000
vt 0.875000 0.250000
vt 0.333333 0.000000
vt 0.000000 0.000000
vt 0.500000 0.333333
vt 0.000000 0.333333
vt 0.000000 0.333333
vt 0.500000 0.333333
vt 0.500000 0.000000
vt 0.000000 0.000000
vt 0.000000 1.000000
vt 0.333333 1.000000
vt 0.500000 1.000000
vt 0.000000 1.000000
vn 0.000000 0.000000 1.000000
vn 0.000000 0.000000 1.000000
vn 0.000000 0.000000 1.000000
vn 0.000000 0.000000 1.000000
vn 0.000000 1.000000 0.000000
vn 0.000000 1.000000 0.000000
vn 0.000000 1.000000 0.000000
vn 0.000000 1.000000 0.000000
vn 0.000000 0.000000 -1.000000
vn 0.000000 0.000000 -1.000000
vn 0.000000 0.000000 -1.000000
vn 0.000000 0.000000 -1.000000
vn 0.000000 -1.000000 0.000000
vn 0.000000 -1.000000 0.000000
vn 0.000000 -1.000000 0.000000
vn 0.000000 -1.000000 0.000000
vn 1.000000 0.000000 0.000000
vn 1.000000 0.000000 0.000000
vn 1.000000 0.000000 0.000000
vn 1.000000 0.000000 0.000000
vn -1.000000 0.000000 0.000000
vn -1.000000 0.000000 0.000000
vn -1.000000 0.000000 0.000000
vn -1.000000 0.000000 0.000000
s off
g pCube1 pCube4
usemtl initialShadingGroup
f 25/69/73 26/71/74 28/91/75 27/92/76
f 27/77/77 28/78/78 30/83/79 29/84/80
f 29/73/81 30/74/82 32/76/83 31/75/84
f 31/85/85 32/86/86 26/87/87 25/88/88
f 26/70/89 32/79/90 30/80/91 28/72/92
f 31/81/93 25/82/94 27/89/95 29/90/96
g default
v -0.500000 -0.500000 -0.500000
v 0.500000 -0.500000 -0.500000
v -0.500000 0.500000 -0.500000
v 0.500000 0.500000 -0.500000
v -0.500000 0.500000 -1.500000
v 0.500000 0.500000 -1.500000
v -0.500000 -0.500000 -1.500000
v 0.500000 -0.500000 -1.500000
vt 0.375000 0.000000
vt 0.625000 0.000000
vt 0.375000 0.250000
vt 0.625000 0.250000
vt 0.000000 1.000000
vt 0.500000 1.000000
vt 0.500000 0.000000
vt 0.000000 0.000000
vt 0.000000 0.666667
vt 0.500000 0.666667
vt 0.875000 0.000000
vt 0.875000 0.250000
vt 1.000000 0.000000
vt 0.666667 0.000000
vt 0.500000 1.000000
vt 0.000000 1.000000
vt 0.000000 1.000000
vt 0.500000 1.000000
vt 0.500000 0.666667
vt 0.000000 0.666667
vt 0.666667 1.000000
vt 1.000000 1.000000
vn 0.000000 0.000000 1.000000
vn 0.000000 0.000000 1.000000
vn 0.000000 0.000000 1.000000
vn 0.000000 0.000000 1.000000
vn 0.000000 1.000000 0.000000
vn 0.000000 1.000000 0.000000
vn 0.000000 1.000000 0.000000
vn 0.000000 1.000000 0.000000
vn 0.000000 0.000000 -1.000000
vn 0.000000 0.000000 -1.000000
vn 0.000000 0.000000 -1.000000
vn 0.000000 0.000000 -1.000000
vn 0.000000 -1.000000 0.000000
vn 0.000000 -1.000000 0.000000
vn 0.000000 -1.000000 0.000000
vn 0.000000 -1.000000 0.000000
vn 1.000000 0.000000 0.000000
vn 1.000000 0.000000 0.000000
vn 1.000000 0.000000 0.000000
vn 1.000000 0.000000 0.000000
vn -1.000000 0.000000 0.000000
vn -1.000000 0.000000 0.000000
vn -1.000000 0.000000 0.000000
vn -1.000000 0.000000 0.000000
s off
g pCube1 pCube6
usemtl initialShadingGroup
f 33/93/97 34/94/98 36/96/99 35/95/100
f 35/101/101 36/102/102 38/107/103 37/108/104
f 37/97/105 38/98/106 40/99/107 39/100/108
f 39/109/109 40/110/110 34/111/111 33/112/112
f 34/94/113 40/103/114 38/104/115 36/96/116
f 39/105/117 33/106/118 35/113/119 37/114/120
g default
v 0.500000 -0.500000 -0.500000
v 1.500000 -0.500000 -0.500000
v 0.500000 0.500000 -0.500000
v 1.500000 0.500000 -0.500000
v 0.500000 0.500000 -1.500000
v 1.500000 0.500000 -1.500000
v 0.500000 -0.500000 -1.500000
v 1.500000 -0.500000 -1.500000
vt 0.375000 0.000000
vt 0.625000 0.000000
vt 0.375000 0.250000
vt 0.625000 0.250000
vt 0.500000 1.000000
vt 1.000000 1.000000
vt 1.000000 0.000000
vt 0.500000 0.000000
vt 0.500000 0.666667
vt 1.000000 0.666667
vt 0.666667 0.000000
vt 1.000000 0.000000
vt 0.125000 0.000000
vt 0.125000 0.250000
vt 1.000000 1.000000
vt 0.500000 1.000000
vt 0.500000 1.000000
vt 1.000000 1.000000
vt 1.000000 0.666667
vt 0.500000 0.666667
vt 1.000000 1.000000
vt 0.666667 1.000000
vn 0.000000 0.000000 1.000000
vn 0.000000 0.000000 1.000000
vn 0.000000 0.000000 1.000000
vn 0.000000 0.000000 1.000000
vn 0.000000 1.000000 0.000000
vn 0.000000 1.000000 0.000000
vn 0.000000 1.000000 0.000000
vn 0.000000 1.000000 0.000000
vn 0.000000 0.000000 -1.000000
vn 0.000000 0.000000 -1.000000
vn 0.000000 0.000000 -1.000000
vn 0.000000 0.000000 -1.000000
vn 0.000000 -1.000000 0.000000
vn 0.000000 -1.000000 0.000000
vn 0.000000 -1.000000 0.000000
vn 0.000000 -1.000000 0.000000
vn 1.000000 0.000000 0.000000
vn 1.000000 0.000000 0.000000
vn 1.000000 0.000000 0.000000
vn 1.000000 0.000000 0.000000
vn -1.000000 0.000000 0.000000
vn -1.000000 0.000000 0.000000
vn -1.000000 0.000000 0.000000
vn -1.000000 0.000000 0.000000
s off
g pCube1 pCube5
usemtl initialShadingGroup
f 41/115/121 42/116/122 44/118/123 43/117/124
f 43/123/125 44/124/126 46/129/127 45/130/128
f 45/119/129 46/120/130 48/121/131 47/122/132
f 47/131/133 48/132/134 42/133/135 41/134/136
f 42/125/137 48/126/138 46/135/139 44/136/140
f 47/127/141 41/115/142 43/117/143 45/128/144
