# This file uses centimeters as units for non-parametric coordinates.

mtllib 4-Platform.mtl
g default
v -0.500000 -0.500000 0.500000
v 0.500000 -0.500000 0.500000
v -0.500000 0.500000 0.500000
v 0.500000 0.500000 0.500000
v -0.500000 0.500000 -0.500000
v 0.500000 0.500000 -0.500000
v -0.500000 -0.500000 -0.500000
v 0.500000 -0.500000 -0.500000
vt 0.375000 0.000000
vt 0.625000 0.000000
vt 0.375000 0.250000
vt 0.625000 0.250000
vt 0.375000 0.500000
vt 0.625000 0.500000
vt 0.375000 0.750000
vt 0.625000 0.750000
vt 0.333333 0.249718
vt 0.666667 0.249718
vt 0.875000 0.000000
vt 0.875000 0.250000
vt 0.125000 0.000000
vt 0.125000 0.250000
vt 0.666667 0.499437
vt 0.333333 0.499437
vt 0.333333 0.499437
vt 0.666667 0.499437
vt 0.666667 0.249718
vt 0.333333 0.249718
vn 0.000000 0.000000 1.000000
vn 0.000000 0.000000 1.000000
vn 0.000000 0.000000 1.000000
vn 0.000000 0.000000 1.000000
vn 0.000000 1.000000 0.000000
vn 0.000000 1.000000 0.000000
vn 0.000000 1.000000 0.000000
vn 0.000000 1.000000 0.000000
vn 0.000000 0.000000 -1.000000
vn 0.000000 0.000000 -1.000000
vn 0.000000 0.000000 -1.000000
vn 0.000000 0.000000 -1.000000
vn 0.000000 -1.000000 0.000000
vn 0.000000 -1.000000 0.000000
vn 0.000000 -1.000000 0.000000
vn 0.000000 -1.000000 0.000000
vn 1.000000 0.000000 0.000000
vn 1.000000 0.000000 0.000000
vn 1.000000 0.000000 0.000000
vn 1.000000 0.000000 0.000000
vn -1.000000 0.000000 0.000000
vn -1.000000 0.000000 0.000000
vn -1.000000 0.000000 0.000000
vn -1.000000 0.000000 0.000000
s off
g pCube7
usemtl initialShadingGroup
f 1/1/1 2/2/2 4/4/3 3/3/4
f 3/9/5 4/10/6 6/15/7 5/16/8
f 5/5/9 6/6/10 8/8/11 7/7/12
f 7/17/13 8/18/14 2/19/15 1/20/16
f 2/2/17 8/11/18 6/12/19 4/4/20
f 7/13/21 1/1/22 3/3/23 5/14/24
g default
v -1.500000 -0.500000 1.495491
v -0.500000 -0.500000 1.495491
v -1.500000 0.500000 1.495491
v -0.500000 0.500000 1.495491
v -1.500000 0.500000 0.495491
v -0.500000 0.500000 0.495491
v -1.500000 -0.500000 0.495491
v -0.500000 -0.500000 0.495491
vt 0.000000 0.000000
vt 0.333333 0.000000
vt 0.333333 1.000000
vt 0.000000 1.000000
vt 0.375000 0.500000
vt 0.625000 0.500000
vt 0.375000 0.750000
vt 0.625000 0.750000
vt 0.000000 0.250844
vt 0.333333 0.250844
vt 0.333333 0.001126
vt 0.000000 0.001126
vt 0.250844 0.000000
vt 0.001126 0.000000
vt 0.333333 0.250844
vt 0.333333 0.001126
vt 0.001126 1.000000
vt 0.250844 1.000000
vt 0.000000 0.001126
vt 0.333333 0.001126
vt 0.333333 0.250844
vt 0.000000 0.250844
vn 0.000000 0.000000 1.000000
vn 0.000000 0.000000 1.000000
vn 0.000000 0.000000 1.000000
vn 0.000000 0.000000 1.000000
vn 0.000000 1.000000 0.000000
vn 0.000000 1.000000 0.000000
vn 0.000000 1.000000 0.000000
vn 0.000000 1.000000 0.000000
vn 0.000000 0.000000 -1.000000
vn 0.000000 0.000000 -1.000000
vn 0.000000 0.000000 -1.000000
vn 0.000000 0.000000 -1.000000
vn 0.000000 -1.000000 0.000000
vn 0.000000 -1.000000 0.000000
vn 0.000000 -1.000000 0.000000
vn 0.000000 -1.000000 0.000000
vn 1.000000 0.000000 0.000000
vn 1.000000 0.000000 0.000000
vn 1.000000 0.000000 0.000000
vn 1.000000 0.000000 0.000000
vn -1.000000 0.000000 0.000000
vn -1.000000 0.000000 0.000000
vn -1.000000 0.000000 0.000000
vn -1.000000 0.000000 0.000000
s off
g pCube7 pCube9
usemtl initialShadingGroup
f 9/21/25 10/22/26 12/23/27 11/24/28
f 11/39/29 12/40/30 14/41/31 13/42/32
f 13/25/33 14/26/34 16/28/35 15/27/36
f 15/29/37 16/30/38 10/31/39 9/32/40
f 10/31/41 16/30/42 14/35/43 12/36/44
f 15/33/45 9/34/46 11/37/47 13/38/48
g default
v 0.500000 -0.500000 1.500000
v 1.500000 -0.500000 1.500000
v 0.500000 0.500000 1.500000
v 1.500000 0.500000 1.500000
v 0.500000 0.500000 0.500000
v 1.500000 0.500000 0.500000
v 0.500000 -0.500000 0.500000
v 1.500000 -0.500000 0.500000
vt 0.375000 0.000000
vt 0.666667 0.000000
vt 0.375000 0.250000
vt 1.000000 0.000000
vt 0.375000 0.500000
vt 0.625000 0.500000
vt 0.375000 0.750000
vt 0.625000 0.750000
vt 0.666667 -0.000000
vt 1.000000 -0.000000
vt -0.000000 0.000000
vt 0.249718 0.000000
vt 0.125000 0.000000
vt 0.125000 0.250000
vt 1.000000 0.249718
vt 0.666667 0.249718
vt 0.666667 0.249718
vt 1.000000 0.249718
vt 1.000000 -0.000000
vt 0.666667 -0.000000
vt 0.249718 1.000000
vt -0.000000 1.000000
vt 1.000000 1.000000
vt 0.666667 1.000000
vn 0.000000 0.000000 1.000000
vn 0.000000 0.000000 1.000000
vn 0.000000 0.000000 1.000000
vn 0.000000 0.000000 1.000000
vn 0.000000 1.000000 0.000000
vn 0.000000 1.000000 0.000000
vn 0.000000 1.000000 0.000000
vn 0.000000 1.000000 0.000000
vn 0.000000 0.000000 -1.000000
vn 0.000000 0.000000 -1.000000
vn 0.000000 0.000000 -1.000000
vn 0.000000 0.000000 -1.000000
vn 0.000000 -1.000000 0.000000
vn 0.000000 -1.000000 0.000000
vn 0.000000 -1.000000 0.000000
vn 0.000000 -1.000000 0.000000
vn 1.000000 0.000000 0.000000
vn 1.000000 0.000000 0.000000
vn 1.000000 0.000000 0.000000
vn 1.000000 0.000000 0.000000
vn -1.000000 0.000000 0.000000
vn -1.000000 0.000000 0.000000
vn -1.000000 0.000000 0.000000
vn -1.000000 0.000000 0.000000
s off
g pCube7 pCube11
usemtl initialShadingGroup
f 17/44/49 18/46/50 20/65/51 19/66/52
f 19/51/53 20/52/54 22/57/55 21/58/56
f 21/47/57 22/48/58 24/50/59 23/49/60
f 23/59/61 24/60/62 18/61/63 17/62/64
f 18/53/65 24/54/66 22/63/67 20/64/68
f 23/55/69 17/43/70 19/45/71 21/56/72
g default
v -0.500000 -0.500000 1.495491
v 0.500000 -0.500000 1.495491
v -0.500000 0.500000 1.495491
v 0.500000 0.500000 1.495491
v -0.500000 0.500000 0.495491
v 0.500000 0.500000 0.495491
v -0.500000 -0.500000 0.495491
v 0.500000 -0.500000 0.495491
vt 0.333333 0.000000
vt 0.625000 0.000000
vt 0.666667 0.000000
vt 0.625000 0.250000
vt 0.375000 0.500000
vt 0.625000 0.500000
vt 0.375000 0.750000
vt 0.625000 0.750000
vt 0.333333 0.250844
vt 0.666667 0.250844
vt 0.875000 0.000000
vt 0.875000 0.250000
vt 0.666667 0.001126
vt 0.333333 0.001126
vt 0.333333 0.001126
vt 0.333333 0.250844
vt 0.333333 0.001126
vt 0.666667 0.001126
vt 0.666667 0.250844
vt 0.333333 0.250844
vt 0.666667 1.000000
vt 0.333333 1.000000
vn 0.000000 0.000000 1.000000
vn 0.000000 0.000000 1.000000
vn 0.000000 0.000000 1.000000
vn 0.000000 0.000000 1.000000
vn 0.000000 1.000000 0.000000
vn 0.000000 1.000000 0.000000
vn 0.000000 1.000000 0.000000
vn 0.000000 1.000000 0.000000
vn 0.000000 0.000000 -1.000000
vn 0.000000 0.000000 -1.000000
vn 0.000000 0.000000 -1.000000
vn 0.000000 0.000000 -1.000000
vn 0.000000 -1.000000 0.000000
vn 0.000000 -1.000000 0.000000
vn 0.000000 -1.000000 0.000000
vn 0.000000 -1.000000 0.000000
vn 1.000000 0.000000 0.000000
vn 1.000000 0.000000 0.000000
vn 1.000000 0.000000 0.000000
vn 1.000000 0.000000 0.000000
vn -1.000000 0.000000 0.000000
vn -1.000000 0.000000 0.000000
vn -1.000000 0.000000 0.000000
vn -1.000000 0.000000 0.000000
s off
g pCube7 pCube10
usemtl initialShadingGroup
f 25/67/73 26/69/74 28/87/75 27/88/76
f 27/83/77 28/84/78 30/85/79 29/86/80
f 29/71/81 30/72/82 32/74/83 31/73/84
f 31/75/85 32/76/86 26/79/87 25/80/88
f 26/68/89 32/77/90 30/78/91 28/70/92
f 31/75/93 25/80/94 27/81/95 29/82/96
g default
v -1.500000 -0.500000 -0.500000
v -0.500000 -0.500000 -0.500000
v -1.500000 0.500000 -0.500000
v -0.500000 0.500000 -0.500000
v -1.500000 0.500000 -1.500000
v -0.500000 0.500000 -1.500000
v -1.500000 -0.500000 -1.500000
v -0.500000 -0.500000 -1.500000
vt 0.375000 0.000000
vt 0.625000 0.000000
vt 0.375000 0.250000
vt 0.625000 0.250000
vt 0.375000 0.500000
vt 0.625000 0.500000
vt 0.375000 0.750000
vt 0.625000 0.750000
vt 0.000000 0.499437
vt 0.333333 0.499437
vt 0.875000 0.000000
vt 0.875000 0.250000
vt 0.749155 0.000000
vt 0.499437 0.000000
vt 0.333333 0.749155
vt 0.000000 0.749155
vt 0.000000 0.749155
vt 0.333333 0.749155
vt 0.333333 0.499437
vt 0.000000 0.499437
vt 0.499437 1.000000
vt 0.749155 1.000000
vn 0.000000 0.000000 1.000000
vn 0.000000 0.000000 1.000000
vn 0.000000 0.000000 1.000000
vn 0.000000 0.000000 1.000000
vn 0.000000 1.000000 0.000000
vn 0.000000 1.000000 0.000000
vn 0.000000 1.000000 0.000000
vn 0.000000 1.000000 0.000000
vn 0.000000 0.000000 -1.000000
vn 0.000000 0.000000 -1.000000
vn 0.000000 0.000000 -1.000000
vn 0.000000 0.000000 -1.000000
vn 0.000000 -1.000000 0.000000
vn 0.000000 -1.000000 0.000000
vn 0.000000 -1.000000 0.000000
vn 0.000000 -1.000000 0.000000
vn 1.000000 0.000000 0.000000
vn 1.000000 0.000000 0.000000
vn 1.000000 0.000000 0.000000
vn 1.000000 0.000000 0.000000
vn -1.000000 0.000000 0.000000
vn -1.000000 0.000000 0.000000
vn -1.000000 0.000000 0.000000
vn -1.000000 0.000000 0.000000
s off
g pCube7 pCube3
usemtl initialShadingGroup
f 33/89/97 34/90/98 36/92/99 35/91/100
f 35/97/101 36/98/102 38/103/103 37/104/104
f 37/93/105 38/94/106 40/96/107 39/95/108
f 39/105/109 40/106/110 34/107/111 33/108/112
f 34/90/113 40/99/114 38/100/115 36/92/116
f 39/101/117 33/102/118 35/109/119 37/110/120
g default
v -0.500000 -0.500000 -0.500000
v 0.500000 -0.500000 -0.500000
v -0.500000 0.500000 -0.500000
v 0.500000 0.500000 -0.500000
v -0.500000 0.500000 -1.500000
v 0.500000 0.500000 -1.500000
v -0.500000 -0.500000 -1.500000
v 0.500000 -0.500000 -1.500000
vt 0.375000 0.000000
vt 0.625000 0.000000
vt 0.375000 0.250000
vt 0.625000 0.250000
vt 0.375000 0.500000
vt 0.625000 0.500000
vt 0.375000 0.750000
vt 0.625000 0.750000
vt 0.333333 0.499437
vt 0.666667 0.499437
vt 0.875000 0.000000
vt 0.875000 0.250000
vt 0.125000 0.000000
vt 0.125000 0.250000
vt 0.666667 0.749155
vt 0.333333 0.749155
vt 0.333333 0.749155
vt 0.666667 0.749155
vt 0.666667 0.499437
vt 0.333333 0.499437
vn 0.000000 0.000000 1.000000
vn 0.000000 0.000000 1.000000
vn 0.000000 0.000000 1.000000
vn 0.000000 0.000000 1.000000
vn 0.000000 1.000000 0.000000
vn 0.000000 1.000000 0.000000
vn 0.000000 1.000000 0.000000
vn 0.000000 1.000000 0.000000
vn 0.000000 0.000000 -1.000000
vn 0.000000 0.000000 -1.000000
vn 0.000000 0.000000 -1.000000
vn 0.000000 0.000000 -1.000000
vn 0.000000 -1.000000 0.000000
vn 0.000000 -1.000000 0.000000
vn 0.000000 -1.000000 0.000000
vn 0.000000 -1.000000 0.000000
vn 1.000000 0.000000 0.000000
vn 1.000000 0.000000 0.000000
vn 1.000000 0.000000 0.000000
vn 1.000000 0.000000 0.000000
vn -1.000000 0.000000 0.000000
vn -1.000000 0.000000 0.000000
vn -1.000000 0.000000 0.000000
vn -1.000000 0.000000 0.000000
s off
g pCube7 pCube4
usemtl initialShadingGroup
f 41/111/121 42/112/122 44/114/123 43/113/124
f 43/119/125 44/120/126 46/125/127 45/126/128
f 45/115/129 46/116/130 48/118/131 47/117/132
f 47/127/133 48/128/134 42/129/135 41/130/136
f 42/112/137 48/121/138 46/122/139 44/114/140
f 47/123/141 41/111/142 43/113/143 45/124/144
g default
v 0.500000 -0.500000 -0.500000
v 1.500000 -0.500000 -0.500000
v 0.500000 0.500000 -0.500000
v 1.500000 0.500000 -0.500000
v 0.500000 0.500000 -1.500000
v 1.500000 0.500000 -1.500000
v 0.500000 -0.500000 -1.500000
v 1.500000 -0.500000 -1.500000
vt 0.375000 0.000000
vt 0.625000 0.000000
vt 0.375000 0.250000
vt 0.625000 0.250000
vt 0.375000 0.500000
vt 0.625000 0.500000
vt 0.375000 0.750000
vt 0.625000 0.750000
vt 0.666667 0.499437
vt 1.000000 0.499437
vt 0.499437 0.000000
vt 0.749155 0.000000
vt 0.125000 0.000000
vt 0.125000 0.250000
vt 1.000000 0.749155
vt 0.666667 0.749155
vt 0.666667 0.749155
vt 1.000000 0.749155
vt 1.000000 0.499437
vt 0.666667 0.499437
vt 0.749155 1.000000
vt 0.499437 1.000000
vn 0.000000 -0.000000 1.000000
vn 0.000000 -0.000000 1.000000
vn 0.000000 -0.000000 1.000000
vn 0.000000 -0.000000 1.000000
vn 0.000000 1.000000 0.000000
vn 0.000000 1.000000 0.000000
vn 0.000000 1.000000 0.000000
vn 0.000000 1.000000 0.000000
vn 0.000000 0.000000 -1.000000
vn 0.000000 0.000000 -1.000000
vn 0.000000 0.000000 -1.000000
vn 0.000000 0.000000 -1.000000
vn 0.000000 -1.000000 0.000000
vn 0.000000 -1.000000 0.000000
vn 0.000000 -1.000000 0.000000
vn 0.000000 -1.000000 0.000000
vn 1.000000 0.000000 0.000000
vn 1.000000 0.000000 0.000000
vn 1.000000 0.000000 0.000000
vn 1.000000 0.000000 0.000000
vn -1.000000 0.000000 0.000000
vn -1.000000 0.000000 0.000000
vn -1.000000 0.000000 0.000000
vn -1.000000 0.000000 0.000000
s off
g pCube7 pCube5
usemtl initialShadingGroup
f 49/131/145 50/132/146 52/134/147 51/133/148
f 51/139/149 52/140/150 54/145/151 53/146/152
f 53/135/153 54/136/154 56/138/155 55/137/156
f 55/147/157 56/148/158 50/149/159 49/150/160
f 50/141/161 56/142/162 54/151/163 52/152/164
f 55/143/165 49/131/166 51/133/167 53/144/168
g default
v 0.500000 -0.500000 0.500000
v 1.500000 -0.500000 0.500000
v 0.500000 0.500000 0.500000
v 1.500000 0.500000 0.500000
v 0.500000 0.500000 -0.500000
v 1.500000 0.500000 -0.500000
v 0.500000 -0.500000 -0.500000
v 1.500000 -0.500000 -0.500000
vt 0.375000 0.000000
vt 0.625000 0.000000
vt 0.375000 0.250000
vt 0.625000 0.250000
vt 0.375000 0.500000
vt 0.625000 0.500000
vt 0.375000 0.750000
vt 0.625000 0.750000
vt 0.666667 0.249718
vt 1.000000 0.249718
vt 0.249718 0.000000
vt 0.499437 0.000000
vt 0.125000 0.000000
vt 0.125000 0.250000
vt 1.000000 0.499437
vt 0.666667 0.499437
vt 0.666667 0.499437
vt 1.000000 0.499437
vt 1.000000 0.249718
vt 0.666667 0.249718
vt 0.499437 1.000000
vt 0.249718 1.000000
vn 0.000000 0.000000 1.000000
vn 0.000000 0.000000 1.000000
vn 0.000000 0.000000 1.000000
vn 0.000000 0.000000 1.000000
vn 0.000000 1.000000 0.000000
vn 0.000000 1.000000 0.000000
vn 0.000000 1.000000 0.000000
vn 0.000000 1.000000 0.000000
vn 0.000000 0.000000 -1.000000
vn 0.000000 0.000000 -1.000000
vn 0.000000 0.000000 -1.000000
vn 0.000000 0.000000 -1.000000
vn 0.000000 -1.000000 0.000000
vn 0.000000 -1.000000 0.000000
vn 0.000000 -1.000000 0.000000
vn 0.000000 -1.000000 0.000000
vn 1.000000 0.000000 0.000000
vn 1.000000 0.000000 0.000000
vn 1.000000 0.000000 0.000000
vn 1.000000 0.000000 0.000000
vn -1.000000 0.000000 0.000000
vn -1.000000 0.000000 0.000000
vn -1.000000 0.000000 0.000000
vn -1.000000 0.000000 0.000000
s off
g pCube7 pCube8
usemtl initialShadingGroup
f 57/153/169 58/154/170 60/156/171 59/155/172
f 59/161/173 60/162/174 62/167/175 61/168/176
f 61/157/177 62/158/178 64/160/179 63/159/180
f 63/169/181 64/170/182 58/171/183 57/172/184
f 58/163/185 64/164/186 62/173/187 60/174/188
f 63/165/189 57/153/190 59/155/191 61/166/192
g default
v -1.500000 -0.500000 0.495491
v -0.500000 -0.500000 0.495491
v -1.500000 0.500000 0.495491
v -0.500000 0.500000 0.495491
v -1.500000 0.500000 -0.504509
v -0.500000 0.500000 -0.504509
v -1.500000 -0.500000 -0.504509
v -0.500000 -0.500000 -0.504509
vt 0.375000 0.000000
vt 0.625000 0.000000
vt 0.375000 0.250000
vt 0.625000 0.250000
vt 0.375000 0.500000
vt 0.625000 0.500000
vt 0.375000 0.750000
vt 0.625000 0.750000
vt 0.000000 0.250844
vt 0.333333 0.250844
vt 0.875000 0.000000
vt 0.875000 0.250000
vt 0.500563 0.000000
vt 0.250844 0.000000
vt 0.333333 0.500563
vt 0.000000 0.500563
vt 0.000000 0.500563
vt 0.333333 0.500563
vt 0.333333 0.250844
vt 0.000000 0.250844
vt 0.250844 1.000000
vt 0.500563 1.000000
vn 0.000000 0.000000 1.000000
vn 0.000000 0.000000 1.000000
vn 0.000000 0.000000 1.000000
vn 0.000000 0.000000 1.000000
vn 0.000000 1.000000 0.000000
vn 0.000000 1.000000 0.000000
vn 0.000000 1.000000 0.000000
vn 0.000000 1.000000 0.000000
vn 0.000000 0.000000 -1.000000
vn 0.000000 0.000000 -1.000000
vn 0.000000 0.000000 -1.000000
vn 0.000000 0.000000 -1.000000
vn 0.000000 -1.000000 0.000000
vn 0.000000 -1.000000 0.000000
vn 0.000000 -1.000000 0.000000
vn 0.000000 -1.000000 0.000000
vn 1.000000 0.000000 0.000000
vn 1.000000 0.000000 0.000000
vn 1.000000 0.000000 0.000000
vn 1.000000 0.000000 0.000000
vn -1.000000 0.000000 0.000000
vn -1.000000 0.000000 0.000000
vn -1.000000 0.000000 0.000000
vn -1.000000 0.000000 0.000000
s off
g pCube7 pCube6
usemtl initialShadingGroup
f 65/175/193 66/176/194 68/178/195 67/177/196
f 67/183/197 68/184/198 70/189/199 69/190/200
f 69/179/201 70/180/202 72/182/203 71/181/204
f 71/191/205 72/192/206 66/193/207 65/194/208
f 66/176/209 72/185/210 70/186/211 68/178/212
f 71/187/213 65/188/214 67/195/215 69/196/216
g default
v -1.500000 -0.500000 -1.504509
v -0.500000 -0.500000 -1.504509
v -1.500000 0.500000 -1.504509
v -0.500000 0.500000 -1.504509
v -1.500000 0.500000 -2.504509
v -0.500000 0.500000 -2.504509
v -1.500000 -0.500000 -2.504509
v -0.500000 -0.500000 -2.504509
vt 0.375000 0.000000
vt 0.625000 0.000000
vt 0.375000 0.250000
vt 0.625000 0.250000
vt 0.000000 1.000000
vt 0.333333 1.000000
vt 0.333333 0.000000
vt 0.000000 0.000000
vt 0.000000 0.750281
vt 0.333333 0.750281
vt 0.875000 0.000000
vt 0.875000 0.250000
vt 1.000000 0.000000
vt 0.750281 0.000000
vt 0.333333 1.000000
vt 0.000000 1.000000
vt 0.000000 1.000000
vt 0.333333 1.000000
vt 0.333333 0.750281
vt 0.000000 0.750281
vt 0.750281 1.000000
vt 1.000000 1.000000
vn 0.000000 0.000000 1.000000
vn 0.000000 0.000000 1.000000
vn 0.000000 0.000000 1.000000
vn 0.000000 0.000000 1.000000
vn 0.000000 1.000000 0.000000
vn 0.000000 1.000000 0.000000
vn 0.000000 1.000000 0.000000
vn 0.000000 1.000000 0.000000
vn 0.000000 0.000000 -1.000000
vn 0.000000 0.000000 -1.000000
vn 0.000000 0.000000 -1.000000
vn 0.000000 0.000000 -1.000000
vn 0.000000 -1.000000 0.000000
vn 0.000000 -1.000000 0.000000
vn 0.000000 -1.000000 0.000000
vn 0.000000 -1.000000 0.000000
vn 1.000000 0.000000 0.000000
vn 1.000000 0.000000 0.000000
vn 1.000000 0.000000 0.000000
vn 1.000000 0.000000 0.000000
vn -1.000000 0.000000 0.000000
vn -1.000000 0.000000 0.000000
vn -1.000000 0.000000 0.000000
vn -1.000000 0.000000 0.000000
s off
g pCube7 pCube12
usemtl initialShadingGroup
f 73/197/217 74/198/218 76/200/219 75/199/220
f 75/205/221 76/206/222 78/211/223 77/212/224
f 77/201/225 78/202/226 80/203/227 79/204/228
f 79/213/229 80/214/230 74/215/231 73/216/232
f 74/198/233 80/207/234 78/208/235 76/200/236
f 79/209/237 73/210/238 75/217/239 77/218/240
g default
v -0.500000 -0.500000 -1.504509
v 0.500000 -0.500000 -1.504509
v -0.500000 0.500000 -1.504509
v 0.500000 0.500000 -1.504509
v -0.500000 0.500000 -2.504509
v 0.500000 0.500000 -2.504509
v -0.500000 -0.500000 -2.504509
v 0.500000 -0.500000 -2.504509
vt 0.375000 0.000000
vt 0.625000 0.000000
vt 0.375000 0.250000
vt 0.625000 0.250000
vt 0.333333 1.000000
vt 0.666667 1.000000
vt 0.666667 0.000000
vt 0.333333 0.000000
vt 0.333333 0.750281
vt 0.666667 0.750281
vt 0.875000 0.000000
vt 0.875000 0.250000
vt 0.125000 0.000000
vt 0.125000 0.250000
vt 0.666667 1.000000
vt 0.333333 1.000000
vt 0.333333 1.000000
vt 0.666667 1.000000
vt 0.666667 0.750281
vt 0.333333 0.750281
vn 0.000000 0.000000 1.000000
vn 0.000000 0.000000 1.000000
vn 0.000000 0.000000 1.000000
vn 0.000000 0.000000 1.000000
vn 0.000000 1.000000 0.000000
vn 0.000000 1.000000 0.000000
vn 0.000000 1.000000 0.000000
vn 0.000000 1.000000 0.000000
vn 0.000000 0.000000 -1.000000
vn 0.000000 0.000000 -1.000000
vn 0.000000 0.000000 -1.000000
vn 0.000000 0.000000 -1.000000
vn 0.000000 -1.000000 0.000000
vn 0.000000 -1.000000 0.000000
vn 0.000000 -1.000000 0.000000
vn 0.000000 -1.000000 0.000000
vn 1.000000 0.000000 0.000000
vn 1.000000 0.000000 0.000000
vn 1.000000 0.000000 0.000000
vn 1.000000 0.000000 0.000000
vn -1.000000 0.000000 0.000000
vn -1.000000 0.000000 0.000000
vn -1.000000 0.000000 0.000000
vn -1.000000 0.000000 0.000000
s off
g pCube7 pCube13
usemtl initialShadingGroup
f 81/219/241 82/220/242 84/222/243 83/221/244
f 83/227/245 84/228/246 86/233/247 85/234/248
f 85/223/249 86/224/250 88/225/251 87/226/252
f 87/235/253 88/236/254 82/237/255 81/238/256
f 82/220/257 88/229/258 86/230/259 84/222/260
f 87/231/261 81/219/262 83/221/263 85/232/264
g default
v 0.500000 -0.500000 -1.504509
v 1.500000 -0.500000 -1.504509
v 0.500000 0.500000 -1.504509
v 1.500000 0.500000 -1.504509
v 0.500000 0.500000 -2.504509
v 1.500000 0.500000 -2.504509
v 0.500000 -0.500000 -2.504509
v 1.500000 -0.500000 -2.504509
vt 0.375000 0.000000
vt 0.625000 0.000000
vt 0.375000 0.250000
vt 0.625000 0.250000
vt 0.666667 1.000000
vt 1.000000 1.000000
vt 1.000000 0.000000
vt 0.666667 0.000000
vt 0.666667 0.750281
vt 1.000000 0.750281
vt 0.750281 0.000000
vt 1.000000 0.000000
vt 0.125000 0.000000
vt 0.125000 0.250000
vt 1.000000 1.000000
vt 0.666667 1.000000
vt 0.666667 1.000000
vt 1.000000 1.000000
vt 1.000000 0.750281
vt 0.666667 0.750281
vt 1.000000 1.000000
vt 0.750281 1.000000
vn 0.000000 -0.000000 1.000000
vn 0.000000 -0.000000 1.000000
vn 0.000000 -0.000000 1.000000
vn 0.000000 -0.000000 1.000000
vn 0.000000 1.000000 0.000000
vn 0.000000 1.000000 0.000000
vn 0.000000 1.000000 0.000000
vn 0.000000 1.000000 0.000000
vn 0.000000 0.000000 -1.000000
vn 0.000000 0.000000 -1.000000
vn 0.000000 0.000000 -1.000000
vn 0.000000 0.000000 -1.000000
vn 0.000000 -1.000000 0.000000
vn 0.000000 -1.000000 0.000000
vn 0.000000 -1.000000 0.000000
vn 0.000000 -1.000000 0.000000
vn 1.000000 0.000000 0.000000
vn 1.000000 0.000000 0.000000
vn 1.000000 0.000000 0.000000
vn 1.000000 0.000000 0.000000
vn -1.000000 0.000000 0.000000
vn -1.000000 0.000000 0.000000
vn -1.000000 0.000000 0.000000
vn -1.000000 0.000000 0.000000
s off
g pCube7 pCube14
usemtl initialShadingGroup
f 89/239/265 90/240/266 92/242/267 91/241/268
f 91/247/269 92/248/270 94/253/271 93/254/272
f 93/243/273 94/244/274 96/245/275 95/246/276
f 95/255/277 96/256/278 90/257/279 89/258/280
f 90/249/281 96/250/282 94/259/283 92/260/284
f 95/251/285 89/239/286 91/241/287 93/252/288
